<?xml version="1.0" encoding="utf-8"?>
<?xml-stylesheet type="text/xsl" href="rss1.xsl"?>
<rss version="2.0" xmlns:atom="http://www.w3.org/2005/Atom" xmlns:content="http://purl.org/rss/1.0/modules/content/" xmlns:dc="http://purl.org/dc/elements/1.1/" xmlns:media="http://search.yahoo.com/mrss/">
<channel>
 <title>Getty</title>
 <link>http://www.gettyimg.com/</link>
 <atom:link href="http://www.gettyimg.com/" rel="self" type="application/rss+xml" />

 
                <item>
                <title><![CDATA[【Cinema Center】MOVIE - American Sniper (2160p) (HDR/Dolby Vision) (MA) (DTS-HD) (MA) (7.1) (WEB-DL) (2014) [MAVERICK]]]></title>
                <link><![CDATA[https://sharemania.us/threads/american-sniper-2160p-hdr-dolby-vision-ma-dts-hd-ma-7-1-web-dl-2014-maverick.223927/]]></link>
                <description><![CDATA[<article>
<blockquote class="messageText SelectQuoteContainer ugc baseHtml">
<img src="https://beam-images.warnermediacdn.com/BEAM_LWM_DELIVERABLES/a6698ebf-192c-45e6-852a-4fc98679882f/dadf7613e1a415838d71233ac3b421b07e17796f.jpg?host=wbd-images.prod-vod.h264.io&amp;partner=beamcom" class="bbCodeImage LbImage" alt="[​IMG]" data-url="https://beam-images.warnermediacdn.com/BEAM_LWM_DELIVERABLES/a6698ebf-192c-45e6-852a-4fc98679882f/dadf7613e1a415838d71233ac3b421b07e17796f.jpg?host=wbd-images.prod-vod.h264.io&amp;partner=beamcom" style=""><b>Plot:</b> Navy S.E.A.L. sniper Chris Kyle's pinpoint accuracy saves countless lives on the battlefield and turns him into a legend. Back home with his family after four tours of duty, however, Chris finds that it is the war he can't leave behind.<br>
<div class="ToggleTriggerAnchor bbCodeSpoilerContainer">
<button type="button" class="button bbCodeSpoilerButton ToggleTrigger Tooltip JsOnly" data-target="> .SpoilerTarget"><span>Spoiler: <span class="SpoilerTitle">IMDB:</span></span></button>
<div class="SpoilerTarget bbCodeSpoilerText"><a href="https://www.imdb.com/title/tt2179136/" target="_blank" class="externalLink" rel="nofollow">https://www.imdb.com/title/tt2179136/</a></div>
</div>
<div class="ToggleTriggerAnchor bbCodeSpoilerContainer">
<button type="button" class="button bbCodeSpoilerButton ToggleTrigger Tooltip JsOnly" data-target="> .SpoilerTarget"><span>Spoiler: <span class="SpoilerTitle">Media Info:</span></span></button>
<div class="SpoilerTarget bbCodeSpoilerText">General<br>
Complete name : C:\Users\Maverick\Desktop\American Sniper (2160p) (HDR/Dolby Vision) (MA) (DTS-HD) (MA) (7.1) (WEB-DL) (2014) [MAVERICK].mkv<br>
Format : Matroska<br>
Format version : Version 4<br>
File size : 25.5 GiB<br>
Duration : 2 h 12 min<br>
Overall bit rate mode : Variable<br>
Overall bit rate : 27.5 Mb/s<br>
Movie name : American Sniper (2160p) (HDR/Dolby Vision) (MA) (DTS-HD) (MA) (7.1) (WEB-DL) (2014) [MAVERICK]<br>
Encoded date : UTC 2023-07-04 19:31:10<br>
Writing application : mkvmerge v78.0 ('Running') 64-bit<br>
Writing library : libebml v1.4.4 + libmatroska v1.7.1<br>
<br>
Video<br>
ID : 1<br>
Format : HEVC<br>
Format/Info : High Efficiency Video Coding<br>
Format profile : Main 10@L5@High<br>
HDR format : Dolby Vision, Version 1.0, dvhe.08.06, BL+RPU, HDR10 compatible / SMPTE ST 2086, HDR10 compatible<br>
Codec ID : V_MPEGH/ISO/HEVC<br>
Duration : 2 h 12 min<br>
Bit rate : 24.0 Mb/s<br>
Width : 3840 pixels<br>
Height : 2160 pixels<br>
Display aspect ratio : 16:9<br>
Frame rate mode : Constant<br>
Frame rate : 23.976 (24000/1001) FPS<br>
Color space : YUV<br>
Chroma subsampling : 4:2:0 (Type 2)<br>
Bit depth : 10 bits<br>
Bits/(Pixel*Frame) : 0.120<br>
Stream size : 22.2 GiB (87%)<br>
Title : American Sniper (2160p) (HDR/Dolby Vision) (MA) (DTS-HD) (MA) (7.1) (WEB-DL) (2014) [MAVERICK]<br>
Language : English<br>
Default : Yes<br>
Forced : No<br>
Color range : Limited<br>
Color primaries : BT.2020<br>
Transfer characteristics : PQ<br>
Matrix coefficients : BT.2020 non-constant<br>
Mastering display color primar : R: x=0.680000 y=0.320000, G: x=0.265000 y=0.690000, B: x=0.150000 y=0.060000, White point: x=0.313000 y=0.329000<br>
Mastering display luminance : min: 0.0050 cd/m2, max: 4000 cd/m2<br>
Maximum Content Light Level : 163 cd/m2<br>
Maximum Frame-Average Light Le : 47 cd/m2<br>
<br>
Audio<br>
ID : 2<br>
Format : DTS XLL<br>
Format/Info : Digital Theater Systems<br>
Commercial name : DTS-HD Master Audio<br>
Codec ID : A_DTS<br>
Duration : 2 h 12 min<br>
Bit rate mode : Variable<br>
Bit rate : 3 590 kb/s<br>
Channel(s) : 8 channels<br>
Channel layout : C L R LFE Lb Rb Lss Rss<br>
Sampling rate : 48.0 kHz<br>
Frame rate : 93.750 FPS (512 SPF)<br>
Bit depth : 24 bits<br>
Compression mode : Lossless<br>
Delay relative to video : 3 ms<br>
Stream size : 3.33 GiB (13%)<br>
Title : DTS-HD MA 7.1<br>
Language : English<br>
Default : Yes<br>
Forced : No<br>
<br>
Menu<br>
00:00:00.000 : en:00:00:00.000<br>
00:10:13.931 : en:00:10:15.240<br>
00:18:55.618 : en:00:18:56.927<br>
00:28:26.272 : en:00:28:27.581<br>
00:39:03.116 : en:00:39:04.425<br>
00:50:56.329 : en:00:50:57.638<br>
01:00:05.419 : en:01:00:06.728<br>
01:07:55.138 : en:01:07:56.447<br>
01:28:42.718 : en:01:28:44.027<br>
01:37:23.405 : en:01:37:24.714<br>
01:45:56.042 : en:01:45:57.351<br>
01:54:42.693 : en:01:54:44.002<br>
02:04:12.054 : en:02:04:13.363</div>
</div><div style="text-align: left">
<div class="ToggleTriggerAnchor bbCodeSpoilerContainer">
<button type="button" class="button bbCodeSpoilerButton ToggleTrigger Tooltip JsOnly" data-target="> .SpoilerTarget"><span>Spoiler: <span class="SpoilerTitle">Download:</span></span></button>
<div class="SpoilerTarget bbCodeSpoilerText">
<div class="bbCodeBlock bbCodeVfcHH HiddenContent">
<div class="attribution type">Hidden Content:</div>
<blockquote>You must either reply or click 'Like' to see the hidden information contained here.</blockquote>
</div></div>
</div></div><div style="text-align: center"><b>Please Note This File Has Been uploaded to Gofile, because its free fast upload and download speeds Grab it while you can, Admin should reupload My files to google drive.<br>
<br>
<b><b><b>Please Credit Me Maverick if you are going to upload my files elsewhere!</b></b></b></b><br>
<br>
<b><b><b><b>New Content will only Be Uploaded from this Account <a href="https://sharemania.us/members/176676/" class="username" data-user="176676, @Maverick">@Maverick</a></b></b></b></b><br>
<br>
<b><b>Enjoy <img src="styles/default/xenforo/smilies/big_smile-48.png" class="mceSmilie" alt=":)" title="Smile    :)"></b></b><br>
​</div>
<div class="messageTextEndMarker">&nbsp;</div>
</blockquote>
</article>]]></description>
                <author><![CDATA[Maverick]]></author>
                </item>

                
                <item>
                <title><![CDATA[【Albums (lossless)】FLAC - KISS OF LIFE - The 1st Mini Album - «Kiss Of Life» [FLAC 24 &amp; 96kHz]]]></title>
                <link><![CDATA[https://sharemania.us/threads/kiss-of-life-the-1st-mini-album-%C2%ABkiss-of-life%C2%BB-flac-24-96khz.223928/]]></link>
                <description><![CDATA[<article>
<blockquote class="messageText SelectQuoteContainer ugc baseHtml">
<div style="text-align: center"><div data-s9e-mediaembed="youtube" style="display:inline-block;width:100%;max-width:640px"><div style="overflow:hidden;position:relative;padding-bottom:56.25%"><iframe allowfullscreen="" scrolling="no" style="background:url(https://i.ytimg.com/vi/mIfpVrYIhvM/hqdefault.jpg) 50% 50% / cover;border:0;height:100%;left:0;position:absolute;width:100%" src="https://www.youtube.com/embed/mIfpVrYIhvM"></iframe></div></div><br>
<br>
<span style="font-family: 'Book Antiqua'"><span style="font-size: 12px"><b>KISS OF LIFE is a South Korean girl group under S2 Entertainment. </b><br>
<b>The members consist of </b></span></span><b><span style="font-family: 'Book Antiqua'"><span style="font-size: 12px">Julie Han, Natty, Belle, and Haneul.<br>
</span></span></b><br>
<img src="https://i.imgur.com/9hoRZBg.jpg" class="bbCodeImage LbImage" alt="[​IMG]" data-url="https://i.imgur.com/9hoRZBg.jpg" style=""><br>
<img src="https://i.imgur.com/OAn6ywk.jpg" class="bbCodeImage LbImage" alt="[​IMG]" data-url="https://i.imgur.com/OAn6ywk.jpg" style=""><br>
<img src="https://i.imgur.com/0RI87Ey.jpg" class="bbCodeImage LbImage" alt="[​IMG]" data-url="https://i.imgur.com/0RI87Ey.jpg" style=""><br>
<img src="https://i.imgur.com/e1Wvr02.jpg" class="bbCodeImage LbImage" alt="[​IMG]" data-url="https://i.imgur.com/e1Wvr02.jpg" style=""><br>
<br>
<span style="font-family: 'Book Antiqua'"><span style="font-size: 12px"><b>Download Link:</b></span></span><br>
<div class="bbCodeBlock bbCodeVfcHH HiddenContent">
<div class="attribution type">Hidden Content:</div>
<blockquote>You must either reply or click 'Like' to see the hidden information contained here.</blockquote>
</div></div>
<div class="messageTextEndMarker">&nbsp;</div>
</blockquote>
</article>]]></description>
                <author><![CDATA[WithLoveSNSD]]></author>
                </item>

                </channel></rss>